inDegrees=no
num_controls=7
num_derivatives=13
num_iterations=136
num_multipliers=7
num_parameters=0
num_slacks=7
num_states=26
objective=5.733958
objective_accelerations=0.674844
objective_balance=0.113719
objective_effort=0.483957
objective_height=4.399908
objective_ligament=0.061530
solver_duration=1612.694509
status=Solve_Succeeded
success=true
DataType=double
version=3
OpenSimVersion=4.4-2022-07-23-0e9fedc
endheader
time	/jointset/ground_pelvis/pelvis_tilt/value	/jointset/ground_pelvis/pelvis_tx/value	/jointset/ground_pelvis/pelvis_ty/value	/jointset/hip_l/hip_flexion_l/value	/jointset/hip_l/hip_adduction_l/value	/jointset/hip_l/hip_rotation_l/value	/jointset/back/lumbar_extension/value	/jointset/patellofemoral_l/patellar_flexion_l/value	/jointset/knee_l/knee_flexion_l/value	/jointset/knee_l/knee_adduction_l/value	/jointset/knee_l/knee_rotation_l/value	/jointset/ankle_l/ankle_angle_l/value	/jointset/subtalar_l/subtalar_angle_l/value	/jointset/ground_pelvis/pelvis_tilt/speed	/jointset/ground_pelvis/pelvis_tx/speed	/jointset/ground_pelvis/pelvis_ty/speed	/jointset/hip_l/hip_flexion_l/speed	/jointset/hip_l/hip_adduction_l/speed	/jointset/hip_l/hip_rotation_l/speed	/jointset/back/lumbar_extension/speed	/jointset/patellofemoral_l/patellar_flexion_l/speed	/jointset/knee_l/knee_flexion_l/speed	/jointset/knee_l/knee_adduction_l/speed	/jointset/knee_l/knee_rotation_l/speed	/jointset/ankle_l/ankle_angle_l/speed	/jointset/subtalar_l/subtalar_angle_l/speed	/forceset/tau_hip_flexion_l	/forceset/tau_hip_adduction_l	/forceset/tau_hip_rotation_l	/forceset/tau_knee_flexion_l	/forceset/tau_ankle_angle_l	/forceset/tau_subtalar_angle_l	/forceset/tau_lumbar_extension	lambda_cid13_p0	lambda_cid13_p1	lambda_cid13_p2	lambda_cid13_p3	lambda_cid13_p4	lambda_cid13_p5	lambda_cid14_p0	/jointset/ground_pelvis/pelvis_tilt/accel	/jointset/ground_pelvis/pelvis_tx/accel	/jointset/ground_pelvis/pelvis_ty/accel	/jointset/hip_l/hip_flexion_l/accel	/jointset/hip_l/hip_adduction_l/accel	/jointset/hip_l/hip_rotation_l/accel	/jointset/back/lumbar_extension/accel	/jointset/patellofemoral_l/patellar_flexion_l/accel	/jointset/knee_l/knee_flexion_l/accel	/jointset/knee_l/knee_adduction_l/accel	/jointset/knee_l/knee_rotation_l/accel	/jointset/ankle_l/ankle_angle_l/accel	/jointset/subtalar_l/subtalar_angle_l/accel	gamma_cid13_p0	gamma_cid13_p1	gamma_cid13_p2	gamma_cid13_p3	gamma_cid13_p4	gamma_cid13_p5	gamma_cid14_p0
1	-0.7457150741644198	-0.1479955120706702	0.575838265652387	2.078066716779526	-0.2973317121981844	0.1343248177534748	-0.436327938277098	1.197357123844054	1.197357123845193	-0.1745203828514085	0.1745304367226137	0.05798029075205638	-0.03793691775585578	-0.0106465370826696	0.0009576389841720738	-0.003222133675247178	0.01658493762118978	0.0008224055948839026	0.003473801442150203	-3.814469869342906e-06	0.008938775625314206	0.008938775625314298	2.073002127496499e-05	3.09156220208286e-06	0.003705671880172558	0.001523184559515952	-0.4943653708802195	0.009601317791012998	-0.01600951674081936	-0.2143066749608569	0.1357171314005191	0.02490596189509588	0.3829943084819816	-3.578068601498656	-9.967633730068142	0.9325098132612406	9.341524512411587	-737.9872476751815	-34.26442858907316	-0.8515462591595244	2.240373736218937	0.2913477330996697	1.79566740880916	-6.828642504494663	-0.3820310171668012	-1.747492386245761	-0.01886570447464423	-4.691531693450368	-4.691531693450622	-0.04053273992321988	0.01611892659859837	-0.3815376360901246	-0.4242965783941957	9.251295074000036e-10	3.802492609687294e-09	-7.449442316145374e-09	-7.835183433866067e-13	1.119976800526741e-09	-3.613896596499152e-09	1.796563249945283e-09
1.01	-0.7457103250830717	-0.1479714317531507	0.5758957134186556	2.077892127822725	-0.2973416412656771	0.1342714343225486	-0.4363280192755262	1.197212106942509	1.197212106943435	-0.1745201136793925	0.1745304762151457	0.05799847679726747	-0.03794185682555863	0.01159781118734856	0.003860751373143899	0.01470954050136044	-0.05149975223975162	-0.002804331634389202	-0.01414857087525708	-1.274783376991629e-05	-0.03793760200593623	-0.03793760200593545	3.607051196609638e-05	3.309384709173011e-06	-6.771281507816389e-05	-0.002506746988027523	-0.4942290236886667	0.0096614757152016	-0.01601893426479607	-0.214304544060912	0.1357978318138387	0.02489647674858617	0.382919449014712	-3.54365185506368	-9.970735431480534	0.9343691836177278	9.271983142268477	-737.8770070066603	-34.26767718308152	-0.8543021261548894	2.216683667831549	0.2901422707303453	1.791594495398379	-6.797936202538023	-0.352413603536291	-1.769325976976629	0.008038455389292203	-4.685006786607585	-4.685006786607242	0.02301049208808817	-0.008256159416896103	-0.3751260880489433	-0.3917050979834286	-2.339047333550363e-09	-5.094093759583524e-09	1.838691153942166e-08	1.242753478996093e-09	-4.752984306814235e-09	2.154852716519227e-08	-4.54581881866564e-09
1.02	-0.745483088859932	-0.1479182504559545	0.5761324133413533	2.077036781172199	-0.2973877214110073	0.1340418839039505	-0.4363282004860775	1.196598463066923	1.196598463067623	-0.1745196024927516	0.1745304720120381	0.05797895155516514	-0.03798696794174672	0.03385089127489554	0.00677783491951133	0.0326282976104529	-0.1195666011264504	-0.006407809972812286	-0.03175959609220111	-2.385688818745581e-05	-0.08478661918299212	-0.08478661918298633	6.913294357045921e-05	-5.647572530751389e-06	-0.003836585582586439	-0.006511224737531018	-0.4940926764970665	0.009721633639398408	-0.01602835178871957	-0.2143024131609803	0.1358785322271499	0.02488699160208334	0.3828445895474987	-3.514555634524034	-9.972869730528849	0.9360335669512793	9.217081559207092	-737.8396401144205	-34.23783069356909	-0.8659554736923762	2.242120099724819	0.2941419645787408	1.793083995306103	-6.825074309646133	-0.377379238996757	-1.745222966153233	-0.01930084257804661	-4.686059602611412	-4.686059602610802	-0.0369883517403963	0.01428397064920743	-0.3806352505417141	-0.4192058187861733	-5.779734703790277e-09	-1.464640184211499e-08	4.512206794468401e-08	2.39303405281079e-09	-1.069972647163387e-08	4.74240064474335e-08	-1.112350028050108e-08
1.03	-0.7450332978268166	-0.1478358037157062	0.5765481666376158	2.075501009546415	-0.2974697322921586	0.133636427220485	-0.4363284997965755	1.195516538844466	1.195516538845447	-0.1745188523898994	0.1745303668090623	0.05792168578927634	-0.03807202382166031	0.05610650489873655	0.009716267060556403	0.05051326333376171	-0.1875690668336424	-0.009990836271581809	-0.04931579776034335	-3.56300577152017e-05	-0.1315863690882947	-0.1315863690882818	6.77455353288689e-05	-1.428391573201553e-05	-0.007622971826383394	-0.01049745587304794	-0.4935138256756714	0.009759270905469101	-0.01605955873844355	-0.2143044584782369	0.1360815326551264	0.02501055235430882	0.3825047963152828	-3.421118561407284	-10.04733658750411	0.9529819660366791	9.087636554311246	-737.4717463346192	-34.34648882507038	-0.886744356663961	2.217158910300015	0.2944076437096826	1.784834749029642	-6.785036010387278	-0.3482418869079293	-1.758442048485392	0.007940718701391623	-4.675150670828401	-4.675150670827645	0.01630761554058863	-0.008289282858288142	-0.3785999268713664	-0.3879621632329614	-9.222223201880087e-09	-2.420540096253688e-08	7.18663958045351e-08	3.542363030467069e-09	-1.664722150438696e-08	7.330676180641503e-08	-1.77035827565531e-08
1.04	-0.7443609752741455	-0.1477238298930789	0.577142495968749	2.073285772601747	-0.2975874689486152	0.1330558838640623	-0.4363289055842265	1.193966973525691	1.193966973526938	-0.1745185118509928	0.1745302048733469	0.05782636423783499	-0.03819686809338878	0.07835719518602829	0.01268325139533196	0.06834350458452147	-0.2554596649060862	-0.01355296503398424	-0.06677693068211056	-4.515231358172275e-05	-0.1783148384471464	-0.1783148384471285	-1.277983664900493e-05	-1.699410107346377e-05	-0.01144774269309073	-0.01446890310050608	-0.4929349748542159	0.00979690817153807	-0.01609076568818802	-0.2143065037955098	0.1362845330830868	0.02513411310652942	0.3821650030831401	-3.333017891614662	-10.12088564531124	0.9698031163018321	8.972637450978491	-737.1768656836442	-34.42256823794011	-0.9169681430787807	2.241135432415081	0.2998524033247829	1.782139100796267	-6.802700782696515	-0.3731997317232895	-1.726209216878266	-0.01885065984601297	-4.671803493321201	-4.671803493321034	-0.05281594448753779	0.01546920222112945	-0.3883121751238794	-0.4162490371743847	-1.189677547935843e-08	-3.293470491529247e-08	9.164640278789464e-08	3.819409633761376e-09	-2.171421559491876e-08	9.342417152948595e-08	-2.301448682456992e-08
1.05	-0.7434661583451218	-0.1475820121784074	0.5779147953416439	2.070392300827057	-0.2977406271817635	0.1323011190297987	-0.4363294004400864	1.191950577168372	1.191950577168645	-0.1745191861579255	0.1745300622655561	0.05769258226220377	-0.0383612554184569	0.1006058471590591	0.01568807003240578	0.08610138060955576	-0.3232042015733207	-0.01706373001775205	-0.0841708730740716	-5.311667372785307e-05	-0.2249427274036468	-0.2249427274036546	-0.0001118889550714491	-1.027101625505054e-05	-0.0153165004410493	-0.01839416852164607	-0.4919614965193037	0.009980764523035295	-0.01614769025205803	-0.214312754908893	0.1366496663396906	0.02524404210567401	0.3815988719433822	-3.174080781484815	-10.20338741520694	0.9908728027874435	8.77220885090926	-736.5924849060195	-34.50645062771297	-0.9571674274242197	2.216676044164757	0.3019641841039638	1.77035804390547	-6.755759952378773	-0.3377827707492808	-1.745235810625593	0.008336001813346754	-4.65502004450008	-4.655020044503956	0.01305870552367902	-0.006565989906800433	-0.3873333221400545	-0.3785128761156303	-1.454732974994267e-08	-4.163808089405849e-08	1.112087747438639e-07	4.069197412856876e-09	-2.675369403100615e-08	1.133614142014347e-07	-2.828572906733565e-08
1.06	-0.7423488657034887	-0.1474099127593239	0.5788642227128992	2.066822297716966	-0.2979284466425587	0.1313725649595582	-0.4363299538742518	1.189468554231953	1.189468554231248	-0.1745205481358761	0.174530018918347	0.05751987755959107	-0.03856446491404281	0.1228523377087975	0.01873959227774637	0.1037691042565032	-0.3907659319862198	-0.02048521056334964	-0.1015347778768532	-5.686799737988072e-05	-0.2714401542675747	-0.2714401542676089	-0.0001503140317651077	2.858007801869823e-06	-0.01923228808934025	-0.02223333720405983	-0.4909880181843744	0.01016462087453526	-0.01620461481593934	-0.2143190060222853	0.137014799596288	0.02535397110482035	0.3810327408036449	-3.020505063132778	-10.28508681831731	1.011970484477575	8.585852123626328	-736.0814074839873	-34.55898716376861	-1.007936436322966	2.24070314775672	0.3091931249780746	1.764108625178869	-6.766139531829419	-0.3553428440891561	-1.720201699042296	-0.01800805254721866	-4.645711074806685	-4.645711074806675	-0.04067913614171384	0.01675039006867403	-0.3977181551904467	-0.3990296894290607	-1.720299985013802e-08	-4.985180601672488e-08	1.32263863653614e-07	4.412162443287554e-09	-3.165540690319105e-08	1.331572132722926e-07	-3.353674484168383e-08
1.07	-0.7410090937110372	-0.1472070432934717	0.5799898088998445	2.062577712646861	-0.2981500129044812	0.1302706705431195	-0.4363305229225282	1.186522298586294	1.186522298585738	-0.1745221158061986	0.1745301350236889	0.05730772177483307	-0.03880562449695385	0.1451030731503992	0.0218440489262841	0.1213263484678843	-0.4581074632867297	-0.02380808739855281	-0.1188285407652818	-5.486037460719218e-05	-0.3177801100673726	-0.3177801100674327	-0.0001574508379779822	1.924993666292067e-05	-0.0232115528714659	-0.02597983687869275	-0.4896493241479117	0.01026832008302812	-0.01627845197468621	-0.2142631944103635	0.1373691526264479	0.02568404376999224	0.3802542246662942	-2.844627441168973	-10.47004439156003	1.053807753457215	8.361938620929692	-735.259982018635	-34.81274273949553	-1.070110539938795	2.217407094415011	0.3125350966794801	1.748257240176826	-6.711621433249793	-0.3177816880540875	-1.731661238997005	0.009617361486991115	-4.623500281376355	-4.623500281380179	0.02011837906300865	-0.006122346172385093	-0.3999312006236097	-0.3596577522902711	-1.985894206892971e-08	-5.803948588108809e-08	1.533983524013311e-07	4.76008371049138e-09	-3.654979181984923e-08	1.529454887473479e-07	-3.878668474005236e-08
